<svg id="Laag_1" data-name="Laag 1" xmlns="http://www.w3.org/2000/svg" xmlns:xlink="http://www.w3.org/1999/xlink" viewBox="0 0 94.87 94.87"><defs><style>.cls-1{fill:none;}.cls-2{clip-path:url(#clip-path);}.cls-3{fill:#202e56;}.cls-4{fill:#fff;}</style><clipPath id="clip-path" transform="translate(0.43 0.43)"><circle class="cls-1" cx="47" cy="47" r="45.98"/></clipPath></defs><g class="cls-2"><rect class="cls-3" width="94.87" height="94.87"/></g><path class="cls-4" d="M42.94,25.63h8.12V27H54V25.44a2.75,2.75,0,0,0-2.74-2.75H42.74A2.75,2.75,0,0,0,40,25.44V27h2.94Z" transform="translate(0.43 0.43)"/><path class="cls-4" d="M60.77,38.62H33.23A1.29,1.29,0,0,0,31.94,40l2.3,28.47a3.07,3.07,0,0,0,3,2.82H56.71a3.07,3.07,0,0,0,3-2.82L62.06,40A1.29,1.29,0,0,0,60.77,38.62ZM39.9,68.27h-.1a1.47,1.47,0,0,1-1.46-1.37L36.9,43.52a1.47,1.47,0,1,1,2.93-.18l1.44,23.38A1.46,1.46,0,0,1,39.9,68.27Zm8.58-1.46a1.47,1.47,0,0,1-2.93,0V43.43a1.47,1.47,0,1,1,2.93,0Zm8.62-23.3L55.72,66.89a1.46,1.46,0,0,1-1.46,1.38h-.09a1.47,1.47,0,0,1-1.38-1.55l1.38-23.38a1.47,1.47,0,0,1,2.93.17Z" transform="translate(0.43 0.43)"/><path class="cls-4" d="M65.85,34.09l-1-2.89a1.85,1.85,0,0,0-1.77-1.27H30.89a1.85,1.85,0,0,0-1.77,1.27l-1,2.89a1.22,1.22,0,0,0,.51,1.41,1.15,1.15,0,0,0,.64.19H64.7a1.15,1.15,0,0,0,.64-.19A1.22,1.22,0,0,0,65.85,34.09Z" transform="translate(0.43 0.43)"/></svg>